<?xml version="1.0" encoding="UTF-8"?>
<!DOCTYPE svg PUBLIC "-//W3C//DTD SVG 1.1//EN" "http://www.w3.org/Graphics/SVG/1.1/DTD/svg11.dtd">
<!-- Creator: CorelDRAW 2020 (64-Bit) -->
<svg xmlns="http://www.w3.org/2000/svg" xml:space="preserve" width="640px" height="80px" version="1.1" style="shape-rendering:geometricPrecision; text-rendering:geometricPrecision; image-rendering:optimizeQuality; fill-rule:evenodd; clip-rule:evenodd"
viewBox="0 0 640 80"
 xmlns:xlink="http://www.w3.org/1999/xlink"
 xmlns:xodm="http://www.corel.com/coreldraw/odm/2003">
 <defs>
  <style type="text/css">
   <![CDATA[
    .fil1 {fill:black;fill-rule:nonzero}
    .fil5 {fill:blue;fill-rule:nonzero}
    .fil3 {fill:lime;fill-rule:nonzero}
    .fil4 {fill:aqua;fill-rule:nonzero}
    .fil0 {fill:red;fill-rule:nonzero}
    .fil6 {fill:fuchsia;fill-rule:nonzero}
    .fil2 {fill:yellow;fill-rule:nonzero}
   ]]>
  </style>
 </defs>
 <g id="Capa_x0020_1">
  <metadata id="CorelCorpID_0Corel-Layer"/>
  <g id="_1623243640064">
   <polygon class="fil0" points="32.9,29.57 32.03,35.77 16.99,44.68 29.53,53.59 28.65,59.74 11.12,47.29 11.89,42.1 "/>
   <path class="fil1" d="M67.39 56.83c-0.05,1.53 -0.53,2.74 -1.42,3.66 -0.81,0.81 -1.75,1.22 -2.82,1.22l-7.81 0c-1.07,0 -1.89,-0.43 -2.44,-1.28 -0.36,-0.55 -0.82,-1.75 -1.38,-3.6l-3.99 -13.34c0.5,-0.13 1.66,-0.72 3.47,-1.73 1.76,-0.98 2.85,-1.64 3.31,-2.01 2.68,-2.09 4.03,-4.72 4.03,-7.86 0,-3.62 -1.71,-5.43 -5.11,-5.43l-20.69 0 3.16 -7.69 20.43 0c7.34,0 11.01,3.51 11.01,10.54 0,5.95 -3.81,11.15 -11.42,15.6l3.61 11.92 8.06 0zm-17.94 -26.43l-6.53 31.31 -7.22 0 6.48 -31.31 7.27 0zm64.87 26.43c-0.56,3.26 -2.44,4.88 -5.63,4.88l-7.28 0c-2.28,0 -3.41,-0.99 -3.41,-2.96 0,-0.7 0.15,-1.6 0.43,-2.72l3.35 -13.18 -10.7 15.54c-0.97,2.51 -2.03,3.76 -3.18,3.76 -0.22,0 -0.44,-0.03 -0.69,-0.1 -1.4,-0.26 -2.11,-1.41 -2.11,-3.46 0,-0.8 0.13,-1.64 0.37,-2.56l4.01 -19.37 -12.15 21.87c-0.77,2.12 -1.91,3.18 -3.4,3.18l-3.8 0 7.29 -35.25 -10.37 0 2.92 -7.69 12.92 0c1.79,0 2.68,0.96 2.68,2.87 0,0.73 -0.12,1.62 -0.38,2.65l-3.96 19.12 8.86 -15.08c0.99,-1.74 1.75,-2.88 2.27,-3.4 0.88,-0.86 2.03,-1.28 3.42,-1.28 0.4,0 0.81,0.22 1.24,0.64 0.7,0.67 1.05,1.67 1.05,2.98 0,0.82 -0.15,1.75 -0.45,2.77l-3.25 15.7 8.5 -11.38c1.1,-1.73 1.82,-2.77 2.18,-3.14 0.63,-0.57 1.54,-0.84 2.71,-0.82 0.47,0 0.96,0.26 1.49,0.79 0.8,0.79 1.2,1.96 1.2,3.49 0,0.87 -0.13,1.83 -0.4,2.89l-4.86 19.26 9.13 0zm34.14 -30.67c0,2.12 -0.56,3.88 -1.68,5.28 -1.05,1.34 -2.3,2.02 -3.72,2.02 -1.42,0 -2.67,-0.68 -3.73,-2.02 -1.11,-1.4 -1.67,-3.16 -1.67,-5.28 0,-0.65 0.07,-1.37 0.2,-2.14l-0.44 0c-3.26,0 -6.17,2.22 -8.76,6.66 -2.5,4.27 -3.75,8.88 -3.75,13.85 0,4.18 1.03,7.34 3.1,9.49 1.78,1.88 4.13,2.81 7.03,2.81l3.76 -15.87 7.59 0c-1.11,4.82 -2.79,12.03 -5.03,21.64 -1.06,4.53 -3.62,6.8 -7.66,6.8 -0.47,0 -1.01,-0.02 -1.62,-0.06l1.86 -7.63c-4.71,0 -8.54,-1.03 -11.5,-3.08 -4.03,-2.81 -6.04,-7.33 -6.04,-13.56 0,-3.45 0.7,-6.97 2.12,-10.55 1.99,-5.03 4.85,-8.96 8.6,-11.78 3.52,-2.64 7.33,-3.97 11.41,-3.97l4.52 0c1.4,0 2.65,0.7 3.71,2.11 1.14,1.44 1.7,3.21 1.7,5.28zm128.27 6.86c0,3.73 -0.85,7.66 -2.57,11.81 -2.27,5.47 -5.57,9.71 -9.9,12.73 -3.99,2.76 -8.27,4.15 -12.86,4.15l-6.69 0 6.48 -31.31 7.23 0 -5.47 26.43c2.7,0 5.38,-1.22 8.03,-3.69 2.65,-2.46 4.58,-5.5 5.8,-9.13 1.1,-3.2 1.65,-5.86 1.65,-8 0,-3.5 -0.65,-6.01 -1.95,-7.54 -1.16,-1.34 -2.95,-2.01 -5.36,-2.01l-19.61 0 3.12 -7.69 19.64 0c3.39,0 6.21,1.07 8.47,3.23 2.67,2.55 3.99,6.22 3.99,11.02zm76.76 23.81c-0.65,3.26 -2.3,4.88 -4.97,4.88l-7.69 0c-2.19,0 -3.29,-1.05 -3.29,-3.17 -1.47,2.53 -3.28,3.8 -5.42,3.8 -1.59,0 -2.87,-0.73 -3.85,-2.2 -0.99,-1.47 -1.49,-3.39 -1.49,-5.74 0,-4.26 1.06,-7.62 3.17,-10.09 1.92,-2.24 4.29,-3.35 7.12,-3.35l11.31 0 -3.33 15.87 8.44 0zm-13.36 -10.99l-4.21 0 -1.41 7.11c-0.08,0.45 -0.12,0.85 -0.12,1.22 0,1.77 1.15,2.66 3.46,2.66l2.28 -10.99zm37.08 10.99c0,1.42 -0.52,2.63 -1.57,3.6 -0.92,0.85 -1.88,1.28 -2.88,1.28l-7.78 0c-2.06,0 -3.09,-1.28 -3.09,-3.84 0,-0.66 0.09,-1.36 0.27,-2.11l2.05 -9.92 -4.14 0 -3.01 8.77c-0.31,1.49 -0.99,2.22 -2.04,2.22l-1.79 0 2.65 -10.99c-0.82,-0.29 -1.49,-0.92 -2,-1.91 -0.51,-0.98 -0.77,-2.12 -0.77,-3.4 0,-2.33 0.72,-4.14 2.16,-5.42 1.19,-1.06 2.61,-1.59 4.26,-1.59l3.26 0 -1.68 7.44 10.84 0 -3.29 15.87 8.55 0zm23.75 0c0,1.42 -0.52,2.63 -1.56,3.6 -0.92,0.85 -1.89,1.28 -2.89,1.28l-7.77 0c-2.07,0 -3.09,-1.28 -3.09,-3.84 0,-0.66 0.09,-1.36 0.26,-2.11l2.06 -9.92 -4.14 0 -3.01 8.77c-0.32,1.49 -0.99,2.22 -2.05,2.22l-1.78 0 2.64 -10.99c-0.82,-0.29 -1.49,-0.92 -1.99,-1.91 -0.51,-0.98 -0.77,-2.12 -0.77,-3.4 0,-2.33 0.72,-4.14 2.15,-5.42 1.19,-1.06 2.62,-1.59 4.27,-1.59l3.26 0 -1.68 7.44 10.84 0 -3.29 15.87 8.54 0zm34.52 -15.87c-0.54,3.25 -2.16,4.88 -4.87,4.88l-12.69 0c0.44,0.44 0.81,1.27 1.09,2.45 0.29,1.19 0.4,2.23 0.35,3.11 -0.19,3.39 -1.19,6.06 -2.98,8 -1.72,1.85 -3.95,2.79 -6.69,2.81 -3.19,0.04 -5.64,-0.91 -7.36,-2.84 -1.53,-1.71 -2.29,-3.96 -2.29,-6.74 0,-0.56 0.04,-1.11 0.1,-1.66 0.35,-3.07 1.37,-5.48 3.05,-7.23 1.77,-1.85 4.15,-2.78 7.13,-2.78l25.16 0zm-22.1 4.88l-4.66 0 -1.81 7.83c-0.09,0.4 -0.14,0.79 -0.14,1.15 0,1.77 1.08,2.64 3.24,2.64 0.26,0 0.48,-0.01 0.67,-0.03l2.7 -11.59zm27.41 10.99c-0.34,1.8 -1.11,3.11 -2.33,3.96 -0.85,0.62 -1.76,0.92 -2.73,0.92l-7.81 0c-2,0 -3,-1.03 -3,-3.08 0,-0.53 0.08,-1.13 0.23,-1.8l6.61 -31.93 7.09 0 -6.61 31.93 8.55 0zm15.54 0c-0.34,1.8 -1.11,3.11 -2.33,3.96 -0.86,0.62 -1.76,0.92 -2.74,0.92l-7.8 0c-2,0 -3,-1.03 -3,-3.08 0,-0.53 0.08,-1.13 0.22,-1.8l6.61 -31.93 7.09 0 -6.61 31.93 8.56 0zm34.35 -15.87c-0.54,3.25 -2.16,4.88 -4.86,4.88l-12.69 0c0.44,0.44 0.81,1.27 1.09,2.45 0.28,1.19 0.4,2.23 0.35,3.11 -0.19,3.39 -1.19,6.06 -2.98,8 -1.72,1.85 -3.95,2.79 -6.69,2.81 -3.19,0.04 -5.64,-0.91 -7.36,-2.84 -1.53,-1.71 -2.29,-3.96 -2.29,-6.74 0,-0.56 0.03,-1.11 0.1,-1.66 0.35,-3.07 1.37,-5.48 3.04,-7.23 1.78,-1.85 4.16,-2.78 7.13,-2.78l25.16 0zm-22.1 4.88l-4.65 0 -1.81 7.83c-0.09,0.4 -0.14,0.79 -0.14,1.15 0,1.77 1.08,2.64 3.24,2.64 0.26,0 0.48,-0.01 0.66,-0.03l2.7 -11.59zm74.55 -27.07l-14.32 39.09c-0.97,2.57 -2.44,3.85 -4.43,3.85l-2.55 0 0 -27.12 -9.94 23.39c-1.07,2.49 -2.65,3.73 -4.74,3.73l-2.89 0 2.12 -35.25 -9.43 0 3.11 -7.69 8.98 0c1.09,0 2.03,0.38 2.81,1.13 1.06,1.04 1.59,2.65 1.59,4.85 0,0.32 -0.01,0.67 -0.04,1.01l-1.46 20.68 9.67 -23.09c0.69,-1.65 1.31,-2.76 1.85,-3.36 0.76,-0.81 1.79,-1.22 3.11,-1.22l1.99 0 0 27.08 9.72 -27.08 4.85 0zm27.52 7.33c0,2.02 -0.53,3.73 -1.57,5.16 -1.06,1.43 -2.33,2.14 -3.83,2.14 -1.48,0 -2.74,-0.71 -3.79,-2.14 -1.04,-1.43 -1.57,-3.15 -1.57,-5.16 0,-0.94 0.1,-1.76 0.28,-2.45l-2.38 0c-0.77,0 -1.42,0.48 -1.96,1.44 -0.53,0.97 -0.8,2.05 -0.8,3.22 0,0.96 0.21,2.34 0.64,4.12 0.43,1.78 0.65,3.14 0.65,4.1 0,1.14 -0.79,2.28 -2.35,3.42 -2.26,1.64 -3.72,2.86 -4.38,3.7 -1.58,1.99 -2.37,4.61 -2.37,7.87 0,2.44 0.92,4.03 2.76,4.76 0.9,0.37 2.48,0.55 4.72,0.55l14.79 0c-0.18,1.57 -0.79,2.81 -1.85,3.72 -0.92,0.78 -1.96,1.16 -3.1,1.16l-16.66 0c-2.49,0 -4.59,-0.65 -6.31,-1.93 -2.22,-1.66 -3.32,-4.16 -3.32,-7.5 0,-3.62 1.2,-6.92 3.61,-9.91 1.97,-2.45 4.3,-4.23 6.98,-5.35 -0.78,-2.54 -1.16,-4.85 -1.16,-6.92 0,-3.97 1.39,-6.96 4.18,-8.97 2.15,-1.58 4.71,-2.36 7.67,-2.36l6.19 0c1.36,0 2.53,0.73 3.49,2.19 0.96,1.45 1.44,3.17 1.44,5.14zm35.92 2.29c0,2.99 -1.04,5.78 -3.14,8.38 -1.26,1.58 -3.18,3.3 -5.74,5.2 1.05,2.7 1.57,5.16 1.57,7.36 0,4.53 -1.94,7.88 -5.84,10.06 -2.78,1.55 -6.03,2.32 -9.73,2.32l-10.55 0 7.31 -31.31 7.3 0 -6.22 26.43 1.03 0c2.37,0 4.37,-0.4 6.01,-1.21 2.42,-1.24 3.63,-3.27 3.63,-6.09 0,-0.89 -0.27,-1.97 -0.81,-3.22 -0.54,-1.25 -0.81,-2.16 -0.81,-2.72 0,-0.3 0.02,-0.49 0.04,-0.62 0.27,-0.9 1.01,-1.77 2.21,-2.62 1.67,-1.2 2.88,-2.32 3.66,-3.33 1.29,-1.68 1.94,-3.64 1.94,-5.86 0,-3.14 -1.58,-4.7 -4.76,-4.7l-23.73 0 3.12 -7.69 23.66 0c3.11,0 5.44,0.64 7,1.9 1.9,1.54 2.85,4.11 2.85,7.72zm-303.62 28.44c-0.28,1.57 -0.93,2.8 -1.94,3.69 -0.91,0.79 -1.95,1.19 -3.11,1.19l-11.3 0c-6.57,0 -9.86,-2.98 -9.86,-8.94 0,-3.82 1.12,-6.83 3.37,-9 1.93,-1.87 4.23,-2.81 6.89,-2.81l2.95 0c1.71,0 3.21,0.4 4.52,1.19 1.73,1.06 2.63,2.66 2.71,4.82 0.07,2.18 -0.62,3.98 -2.08,5.43l-6.69 0 2.17 -6.56 -4.28 0 -1.65 7.36c-0.09,0.43 -0.14,0.81 -0.14,1.16 0,1.65 0.88,2.47 2.64,2.47l15.8 0zm24.38 0c-0.05,1.37 -0.57,2.52 -1.55,3.46 -0.98,0.95 -2.06,1.42 -3.22,1.42l-15.42 0c-2.96,0 -4.44,-1.36 -4.44,-4.08 0,-0.24 0.01,-0.51 0.04,-0.8 0.11,-1.21 0.54,-2.16 1.29,-2.83 0.65,-0.59 1.4,-0.87 2.24,-0.85 1.46,0.06 3.44,1.27 5.95,3.62 0.71,-1.34 1.07,-2.71 1.07,-4.09 0,-0.69 -0.29,-2.27 -0.87,-4.73l-2.29 3.14 -4.07 0 5.4 -7.5c-0.24,-0.64 -0.41,-1.16 -0.5,-1.57 -0.18,-0.75 -0.27,-1.6 -0.29,-2.56l4.99 -8c2.24,0.57 3.36,2.1 3.36,4.6 0,1.47 -0.29,2.83 -0.87,4.07 0.5,2 1,3.99 1.52,5.99 0.62,2.56 0.93,4.64 0.93,6.23 0,1.75 -0.46,3.25 -1.38,4.48l8.11 0z"/>
   <polygon class="fil2" points="176,42.1 175.24,47.31 154.22,59.76 155.11,53.59 170.13,44.68 157.6,35.77 158.48,29.57 "/>
   <polygon class="fil3" points="191.42,43.96 189.63,51.71 175.96,51.71 177.75,43.96 "/>
   <polygon class="fil4" points="222.31,29.57 221.44,35.77 206.41,44.68 218.94,53.59 218.07,59.74 200.54,47.29 201.3,42.1 "/>
   <polygon class="fil5" points="244.51,18.77 228.89,61.71 224.53,61.71 240.14,18.77 "/>
   <polygon class="fil6" points="629.64,42.1 628.88,47.31 607.86,59.76 608.75,53.59 623.77,44.68 611.24,35.77 612.11,29.57 "/>
  </g>
 </g>
</svg>
